<?xml version="1.0" standalone="no"?><!DOCTYPE svg PUBLIC "-//W3C//DTD SVG 1.1//EN" "http://www.w3.org/Graphics/SVG/1.1/DTD/svg11.dtd"><svg class="icon" height="512" viewBox="0 0 1024 1024" version="1.1" xmlns="http://www.w3.org/2000/svg"><path d="M481.28 542.72c-13.312 0-26.624 5.12-35.84 15.36-19.456 19.456-19.456 52.224 0 72.704 9.216 9.216 22.528 15.36 35.84 15.36 13.312 0 26.624-5.12 35.84-15.36 19.456-19.456 19.456-52.224 0-72.704-9.216-10.24-22.528-15.36-35.84-15.36z m333.824-229.376l-69.632-100.352c-6.144-9.216-18.432-11.264-27.648-6.144L375.808 418.816c-32.768 19.456-61.44 48.128-79.872 91.136-18.432 44.032-22.528 91.136-11.264 135.168-44.032 4.096-79.872 40.96-79.872 87.04 0 48.128 38.912 87.04 87.04 87.04 35.84 0 66.56-21.504 79.872-52.224 78.848 50.176 185.344 40.96 254.976-28.672 62.464-62.464 75.776-155.648 40.96-232.448-12.288-26.624-5.12-59.392 19.456-76.8l123.904-88.064c8.192-5.12 10.24-18.432 4.096-27.648zM291.84 757.76c-14.336 0-25.6-11.264-25.6-25.6s11.264-25.6 25.6-25.6 25.6 11.264 25.6 25.6-11.264 25.6-25.6 25.6z m269.312-83.968C539.648 695.296 510.976 706.56 481.28 706.56c-29.696 0-58.368-11.264-79.872-32.768-44.032-44.032-44.032-115.712 0-159.744C422.912 492.544 450.56 481.28 481.28 481.28c29.696 0 58.368 11.264 79.872 32.768 44.032 44.032 44.032 115.712 0 159.744z" /></svg>